<svg xmlns="http://www.w3.org/2000/svg" viewBox="0 0 32 32"><g transform="scale(0.33)"><path fill-rule="evenodd" fill="#17160F" d="M18 0H78A18 18 0 0 1 96 18V39A9 9 0 0 0 96 57V78A18 18 0 0 1 78 96H18A18 18 0 0 1 0 78V57A9 9 0 0 0 0 39V18A18 18 0 0 1 18 0Z"/><circle cx="48" cy="61.72" r="29.120000000000005" fill="#FFE14D"/><path d="M11.04 50.519999999999996 C11.04 7.959999999999994, 84.96000000000001 7.959999999999994, 84.96000000000001 50.519999999999996 Z" fill="#5E7A38"/><rect x="6.559999999999995" y="47.72" width="82.88000000000001" height="7.840000000000001" rx="3.9200000000000004" fill="#5E7A38"/><circle cx="37.92" cy="66.2" r="3.5840000000000005" fill="#17160F"/><circle cx="58.08" cy="66.2" r="3.5840000000000005" fill="#17160F"/><path d="M41.28 72.92 h13.440000000000001 l-6.720000000000001 10.080000000000002 z" fill="#F28C00"/></g></svg>
